<svg width="17" height="16" viewBox="0 0 17 16" fill="none" xmlns="http://www.w3.org/2000/svg">
<path d="M5.49554 13.1944C6.75588 13.9238 8.23847 14.17 9.66691 13.887C11.0953 13.6041 12.3721 12.8113 13.2592 11.6565C14.1463 10.5017 14.5831 9.06365 14.4883 7.61055C14.3934 6.15745 13.7734 4.78843 12.7437 3.75875C11.714 2.72906 10.345 2.10899 8.89187 2.01413C7.43876 1.91928 6.00076 2.35611 4.84595 3.2432C3.69114 4.13028 2.89835 5.40707 2.61539 6.83551C2.33243 8.26394 2.57862 9.74654 3.30804 11.0069L2.52617 13.3412C2.49679 13.4293 2.49253 13.5239 2.51386 13.6143C2.53519 13.7047 2.58127 13.7873 2.64694 13.853C2.7126 13.9186 2.79526 13.9647 2.88565 13.9861C2.97603 14.0074 3.07057 14.0031 3.15867 13.9737L5.49554 13.1944Z" stroke="white" stroke-linecap="round" stroke-linejoin="round"/>
</svg>
