<svg width="20" height="20" viewBox="0 0 20 20" fill="none" xmlns="http://www.w3.org/2000/svg">
<path d="M6.24431 16.4929C7.81972 17.4047 9.67297 17.7125 11.4585 17.3588C13.2441 17.0051 14.84 16.0141 15.9489 14.5706C17.0578 13.1271 17.6038 11.3295 17.4852 9.51317C17.3667 7.69679 16.5916 5.98552 15.3045 4.69842C14.0174 3.41131 12.3061 2.63622 10.4897 2.51765C8.67333 2.39908 6.87582 2.94512 5.43231 4.05398C3.9888 5.16283 2.99781 6.75882 2.64412 8.54436C2.29042 10.3299 2.59815 12.1832 3.50993 13.7586L2.53259 16.6765C2.49586 16.7867 2.49053 16.9048 2.5172 17.0178C2.54386 17.1308 2.60146 17.2341 2.68355 17.3162C2.76563 17.3983 2.86895 17.4559 2.98194 17.4826C3.09492 17.5092 3.21309 17.5039 3.32321 17.4672L6.24431 16.4929Z" stroke="#53596C" stroke-linecap="round" stroke-linejoin="round"/>
</svg>
