<svg width="30" height="30" viewBox="0 0 30 30" fill="none" xmlns="http://www.w3.org/2000/svg">
<path d="M6.58497 17.9283C5.9563 17.0652 5.66327 16.0029 5.76064 14.9396C5.858 13.8763 6.33909 12.8848 7.11405 12.1503C11.6086 7.87501 18.7437 8.05341 23.019 12.5479C23.7563 13.3203 24.1872 14.3346 24.2313 15.4014C24.2754 16.4682 23.9297 17.5146 23.2586 18.3452C23.0872 18.5534 22.853 18.7005 22.5911 18.7647C22.3292 18.8288 22.0535 18.8066 21.8052 18.7012L18.0709 17.1694L18.0645 17.1626C17.8745 17.0819 17.7074 16.9555 17.5781 16.7945C17.4489 16.6335 17.3615 16.443 17.3239 16.24C17.3195 16.2151 17.3168 16.1907 17.3147 16.1658L17.1643 13.6477C15.9208 13.1894 14.17 13.1534 12.8927 13.5586L12.6301 16.0414C12.6274 16.0657 12.6233 16.0898 12.6178 16.1135C12.572 16.3162 12.4764 16.5043 12.3396 16.6608C12.2028 16.8172 12.0292 16.9371 11.8344 17.0096L11.8238 17.0132L8.02046 18.3549C7.76721 18.4483 7.49052 18.4572 7.23177 18.3803C6.97302 18.3034 6.74611 18.1449 6.58497 17.9283Z" fill="white"/>
</svg>
