<svg width="16" height="16" viewBox="0 0 16 16" fill="none" xmlns="http://www.w3.org/2000/svg">
<path d="M10.0001 4.99998L4.79318 10.2931C4.61021 10.4816 4.50875 10.7345 4.51073 10.9972C4.51271 11.2599 4.61796 11.5112 4.80375 11.6969C4.98954 11.8826 5.24094 11.9878 5.50362 11.9896C5.76629 11.9915 6.01916 11.8899 6.20756 11.7069L12.4144 5.41436C12.7896 5.03924 13.0003 4.53048 13.0003 3.99998C13.0003 3.46949 12.7896 2.96072 12.4144 2.58561C12.0393 2.21049 11.5306 1.99976 11.0001 1.99976C10.4696 1.99976 9.9608 2.21049 9.58568 2.58561L3.37881 8.87873C2.82377 9.44289 2.51414 10.2035 2.51736 10.9949C2.52058 11.7863 2.8364 12.5444 3.39601 13.104C3.95563 13.6636 4.71371 13.9795 5.50512 13.9827C6.29653 13.9859 7.05715 13.6763 7.62131 13.1212L12.7501 7.99998" stroke="#16191D" stroke-linecap="round" stroke-linejoin="round"/>
</svg>
