<svg width="30" height="36" viewBox="0 0 30 36" fill="none" xmlns="http://www.w3.org/2000/svg">
<path d="M29.1339 11.5886V32.117C29.1339 34.0285 27.5843 35.5781 25.6728 35.5781H4.32832C2.41677 35.5781 0.867188 34.0285 0.867188 32.117V3.88301C0.867114 1.97146 2.4167 0.421875 4.32832 0.421875H18.6243L29.1339 11.5886Z" fill="#E5252A"/>
<path d="M29.1346 11.5886H20.9324C19.6581 11.5886 18.625 10.5555 18.625 9.28118V0.421875L29.1346 11.5886Z" fill="#ED676A"/>
<path d="M8.24272 25.1104V27.4494H6.58203V20.5586H9.3311C9.85837 20.5586 10.3249 20.6555 10.7305 20.8493C11.1361 21.0431 11.4493 21.3202 11.6724 21.6785C11.8932 22.0368 12.0058 22.4425 12.0058 22.8976C12.0058 23.5691 11.7647 24.1054 11.2825 24.5088C10.8025 24.9098 10.1423 25.1104 9.30181 25.1104H8.24272ZM8.24272 23.8282H9.3311C9.65337 23.8282 9.89895 23.7493 10.0679 23.5871C10.2369 23.4271 10.3203 23.1995 10.3203 22.9066C10.3203 22.5843 10.2324 22.3275 10.0589 22.1337C9.8854 21.9421 9.64883 21.8452 9.34912 21.8407H8.24272V23.8282Z" fill="white"/>
<path d="M12.8906 27.4494V20.5586H15.1102C15.7186 20.5586 16.2661 20.6961 16.7528 20.9732C17.2373 21.2481 17.6181 21.638 17.8908 22.1427C18.1635 22.6453 18.3009 23.2086 18.3032 23.8327V24.1505C18.3032 24.7814 18.1702 25.347 17.9043 25.8473C17.6384 26.3475 17.2621 26.7374 16.7776 27.0213C16.2931 27.303 15.7523 27.4449 15.1574 27.4494H12.8906V27.4494ZM14.5514 21.8408V26.1717H15.1282C15.6059 26.1717 15.971 26.0028 16.2256 25.6625C16.4825 25.3245 16.611 24.8198 16.611 24.1505V23.853C16.611 23.186 16.4825 22.6858 16.2256 22.3478C15.971 22.0097 15.5992 21.8408 15.1102 21.8408H14.5514Z" fill="white"/>
<path d="M23.4962 24.7048H20.8169V27.4494H19.1562V20.5586H23.7644V21.8408H20.8169V23.4271H23.4962V24.7048Z" fill="white"/>
</svg>
