<svg width="17" height="16" viewBox="0 0 17 16" fill="none" xmlns="http://www.w3.org/2000/svg">
<path d="M10.7744 9.08375C10.8436 9.03767 10.9233 9.0096 11.0061 9.00207C11.0889 8.99454 11.1723 9.00779 11.2488 9.04063L14.1963 10.3613C14.2956 10.4037 14.3785 10.4772 14.4326 10.5707C14.4867 10.6642 14.509 10.7727 14.4963 10.88C14.3991 11.6057 14.0418 12.2713 13.4907 12.7533C12.9395 13.2352 12.2321 13.5006 11.5 13.5C9.24566 13.5 7.08365 12.6045 5.48959 11.0104C3.89553 9.41635 3 7.25434 3 5C2.99944 4.26788 3.2648 3.56047 3.74673 3.00933C4.22865 2.4582 4.89435 2.10085 5.62 2.00375C5.72727 1.99101 5.83578 2.01335 5.9293 2.06743C6.02281 2.12151 6.0963 2.20442 6.13875 2.30375L7.45938 5.25375C7.49182 5.32952 7.50504 5.41213 7.49784 5.49424C7.49064 5.57635 7.46326 5.65541 7.41813 5.72438L6.0825 7.3125C6.03512 7.38399 6.00711 7.46655 6.00119 7.55211C5.99528 7.63767 6.01166 7.7233 6.04875 7.80063C6.56563 8.85875 7.65938 9.93938 8.72063 10.4513C8.79836 10.4882 8.88439 10.5042 8.9702 10.4977C9.05602 10.4913 9.13867 10.4625 9.21 10.4144L10.7744 9.08375Z" stroke="#16191D" stroke-linecap="round" stroke-linejoin="round"/>
</svg>
