<svg width="15" height="14" viewBox="0 0 15 14" fill="none" xmlns="http://www.w3.org/2000/svg">
<path d="M4.875 9.1875H2.25C2.13397 9.1875 2.02269 9.14141 1.94064 9.05936C1.85859 8.97731 1.8125 8.86603 1.8125 8.75V5.25C1.8125 5.13397 1.85859 5.02269 1.94064 4.94064C2.02269 4.85859 2.13397 4.8125 2.25 4.8125H4.875L8.8125 1.75V12.25L4.875 9.1875Z" stroke="#16191D" stroke-linecap="round" stroke-linejoin="round"/>
<path d="M4.875 4.8125V9.1875" stroke="#16191D" stroke-linecap="round" stroke-linejoin="round"/>
<path d="M11 5.84335C11.2815 6.16292 11.4367 6.57415 11.4367 6.99999C11.4367 7.42584 11.2815 7.83706 11 8.15663" stroke="#16191D" stroke-linecap="round" stroke-linejoin="round"/>
<path d="M12.6226 4.375C13.2682 5.0969 13.6252 6.03146 13.6252 7C13.6252 7.96854 13.2682 8.9031 12.6226 9.625" stroke="#16191D" stroke-linecap="round" stroke-linejoin="round"/>
</svg>
