<svg width="15" height="14" viewBox="0 0 15 14" fill="none" xmlns="http://www.w3.org/2000/svg">
<path d="M2.25 5.6875H4.875V11.375H2.25C2.13397 11.375 2.02269 11.3289 1.94064 11.2469C1.85859 11.1648 1.8125 11.0535 1.8125 10.9375V6.125C1.8125 6.00897 1.85859 5.89769 1.94064 5.81564C2.02269 5.73359 2.13397 5.6875 2.25 5.6875Z" stroke="#16191D" stroke-linecap="round" stroke-linejoin="round"/>
<path d="M4.875 5.6875L7.0625 1.3125C7.52663 1.3125 7.97175 1.49687 8.29994 1.82506C8.62813 2.15325 8.8125 2.59837 8.8125 3.0625V4.375H12.3125C12.4366 4.37503 12.5593 4.40148 12.6724 4.45257C12.7855 4.50366 12.8865 4.57823 12.9686 4.67133C13.0507 4.76444 13.112 4.87394 13.1485 4.99256C13.185 5.11119 13.1959 5.23623 13.1804 5.35938L12.5241 10.6094C12.4975 10.8208 12.3946 11.0152 12.2349 11.1562C12.0751 11.2971 11.8693 11.3749 11.6562 11.375H4.875" stroke="#16191D" stroke-linecap="round" stroke-linejoin="round"/>
</svg>
