<svg width="15" height="14" viewBox="0 0 15 14" fill="none" xmlns="http://www.w3.org/2000/svg">
<path d="M2.25 2.625H4.875V8.3125H2.25C2.13397 8.3125 2.02269 8.26641 1.94064 8.18436C1.85859 8.10231 1.8125 7.99103 1.8125 7.875V3.0625C1.8125 2.94647 1.85859 2.83519 1.94064 2.75314C2.02269 2.67109 2.13397 2.625 2.25 2.625Z" stroke="#16191D" stroke-linecap="round" stroke-linejoin="round"/>
<path d="M4.875 8.3125L7.0625 12.6875C7.52663 12.6875 7.97175 12.5031 8.29994 12.1749C8.62813 11.8467 8.8125 11.4016 8.8125 10.9375V9.625H12.3125C12.4366 9.62497 12.5593 9.59852 12.6724 9.54743C12.7855 9.49634 12.8865 9.42177 12.9686 9.32867C13.0507 9.23556 13.112 9.12606 13.1485 9.00744C13.185 8.88881 13.1959 8.76377 13.1804 8.64062L12.5241 3.39062C12.4975 3.17922 12.3946 2.98479 12.2349 2.84383C12.0751 2.70287 11.8693 2.62506 11.6562 2.625H4.875" stroke="#16191D" stroke-linecap="round" stroke-linejoin="round"/>
</svg>
