<svg width="24" height="24" viewBox="0 0 24 24" fill="none" xmlns="http://www.w3.org/2000/svg">
<path d="M7.875 15C10.5674 15 12.75 12.8174 12.75 10.125C12.75 7.43261 10.5674 5.25 7.875 5.25C5.18261 5.25 3 7.43261 3 10.125C3 12.8174 5.18261 15 7.875 15Z" stroke="#013BDB" stroke-width="2" stroke-linecap="round" stroke-linejoin="round"/>
<path d="M0.958984 18.75C1.70813 17.5981 2.73311 16.6516 3.94086 15.9964C5.14861 15.3412 6.50089 14.998 7.87492 14.998C9.24896 14.998 10.6012 15.3412 11.809 15.9964C13.0167 16.6516 14.0417 17.5981 14.7909 18.75" stroke="#013BDB" stroke-width="1.83333" stroke-linecap="round" stroke-linejoin="round"/>
<path d="M16.125 15C17.499 14.9992 18.8513 15.3418 20.0592 15.9967C21.267 16.6517 22.292 17.5981 23.0409 18.75" stroke="#013BDB" stroke-width="1.83333" stroke-linecap="round" stroke-linejoin="round"/>
<path d="M14.3149 5.59687C14.9818 5.3309 15.6992 5.2155 16.4158 5.25893C17.1324 5.30235 17.8306 5.50352 18.4605 5.84806C19.0904 6.19261 19.6363 6.67202 20.0595 7.25204C20.4826 7.83207 20.7723 8.49838 20.908 9.20338C21.0438 9.90838 21.0221 10.6346 20.8446 11.3303C20.6671 12.026 20.3381 12.6738 19.8812 13.2276C19.4243 13.7814 18.8507 14.2274 18.2014 14.5338C17.5521 14.8402 16.8432 14.9994 16.1253 15" stroke="#013BDB" stroke-width="1.83333" stroke-linecap="round" stroke-linejoin="round"/>
</svg>
